<?xml version="1.0" encoding="UTF-8" standalone="no"?>
<!-- Created with Inkscape (http://www.inkscape.org/) -->

<svg
   width="47.813618mm"
   height="50.728687mm"
   viewBox="0 0 47.813618 50.728687"
   version="1.1"
   id="svg1"
   inkscape:version="1.1.2 (0a00cf5339, 2022-02-04)"
   sodipodi:docname="map04c.svg"
   xmlns:inkscape="http://www.inkscape.org/namespaces/inkscape"
   xmlns:sodipodi="http://sodipodi.sourceforge.net/DTD/sodipodi-0.dtd"
   xmlns="http://www.w3.org/2000/svg"
   xmlns:svg="http://www.w3.org/2000/svg">
  <sodipodi:namedview
     id="namedview1"
     pagecolor="#ffffff"
     bordercolor="#666666"
     borderopacity="1.0"
     inkscape:showpageshadow="2"
     inkscape:pageopacity="0.0"
     inkscape:pagecheckerboard="0"
     inkscape:deskcolor="#d1d1d1"
     inkscape:document-units="mm"
     inkscape:zoom="1.4520903"
     inkscape:cx="92.969425"
     inkscape:cy="102.95503"
     inkscape:window-width="1920"
     inkscape:window-height="1009"
     inkscape:window-x="0"
     inkscape:window-y="34"
     inkscape:window-maximized="1"
     inkscape:current-layer="layer1"
     inkscape:pageshadow="2"
     showgrid="false" />
  <defs
     id="defs1" />
  <g
     inkscape:label="Livello 1"
     inkscape:groupmode="layer"
     id="layer1"
     transform="translate(-36.441703,-46.280896)">
    <path
       d="M 60.629374,46.280896 H 43.547729 c -3.936798,0 -7.106026,3.169227 -7.106026,7.106026 v 20.769792 z"
       style="fill:#677821;stroke-width:0.0370417;stroke-miterlimit:10"
       id="path7" />
    <path
       d="m 45.444771,63.78112 -9.003068,10.375594 v 15.746842 c 0,3.936799 3.169228,7.106027 7.106026,7.106027 h 27.016956 z"
       style="fill:#aa0000;stroke-width:0.0370417;stroke-miterlimit:10"
       id="path10" />
    <path
       d="m 84.255322,74.680713 -22.603788,10.538891 8.913151,11.789979 h 6.584611 c 3.936799,0 7.106026,-3.169228 7.106026,-7.106027 z"
       style="fill:#e9ddaf;stroke-width:0.0370417;stroke-miterlimit:10"
       id="path13" />
    <path
       d="M 79.777559,76.768441 47.696313,61.185929 45.444771,63.78112 61.651534,85.219604 Z"
       style="fill:#cdde87;stroke-width:0.0370417;stroke-miterlimit:10"
       id="path3" />
    <path
       d="M 60.629374,46.280896 47.696313,61.185929 79.777559,76.768441 84.255322,74.680713 V 53.386922 c 0,-3.936799 -3.169227,-7.106026 -7.106026,-7.106026 z"
       style="fill:#ac9393;stroke-width:0.0370417;stroke-miterlimit:10"
       id="path2" />
    <path
       style="fill:#3c3c3c;fill-opacity:1;stroke:#000000;stroke-width:0.0128066;stroke-miterlimit:4;stroke-dasharray:none;stroke-opacity:1"
       d="m 71.871958,64.612126 c -1.383755,-1.330579 -1.731714,-1.658874 -1.742772,-1.64427 -0.0077,0.0099 -0.25119,0.445824 -0.541314,0.968419 -0.290129,0.522597 -0.534409,0.950273 -0.542847,0.95039 -0.0084,1.23e-4 -0.250997,-0.547142 -0.539026,-1.216128 -0.462759,-1.074839 -0.526124,-1.214498 -0.544632,-1.200477 -0.01156,0.0087 -0.925359,0.718006 -2.030756,1.576174 -1.105397,0.85817 -2.01475,1.560308 -2.020789,1.560308 -0.0061,0 -0.01099,-0.01115 -0.01099,-0.02459 0,-0.01353 0.303642,-1.022303 0.674765,-2.241741 0.37112,-1.219439 0.673098,-2.220903 0.671066,-2.225474 -0.002,-0.0046 -0.42437,0.0633 -0.938518,0.15082 -0.514148,0.08752 -0.94233,0.159211 -0.95151,0.159306 -0.0093,9.8e-5 -0.01669,-0.0071 -0.01669,-0.01593 0,-0.0089 0.261414,-0.26635 0.58092,-0.572222 0.319506,-0.305871 0.580854,-0.559663 0.580769,-0.563981 -8.5e-5,-0.0043 -0.926219,-0.510378 -2.058078,-1.124575 -1.131856,-0.614196 -2.061003,-1.12394 -2.06477,-1.132765 -0.0038,-0.0089 -0.0045,-0.01829 -0.0016,-0.02101 0.003,-0.0028 1.029586,0.06146 2.281436,0.142658 1.251849,0.0812 2.27894,0.144978 2.282423,0.14174 0.0082,-0.0077 -0.490165,-0.930003 -0.961163,-1.778308 -0.208435,-0.375404 -0.36959,-0.679536 -0.363215,-0.685456 0.0064,-0.0059 0.638601,0.11887 1.424926,0.281247 0.777406,0.160542 1.416806,0.288793 1.420885,0.285002 0.0038,-0.0038 -0.219498,-1.084937 -0.496846,-2.402546 -0.277352,-1.31761 -0.501106,-2.398593 -0.497239,-2.402184 0.0038,-0.0035 0.0148,-0.0036 0.0243,-2.07e-4 0.0095,0.0034 0.732404,0.863665 1.606463,1.91155 0.874051,1.047884 1.592189,1.905499 1.595865,1.905806 0.0038,2.06e-4 0.270123,-0.634923 0.592118,-1.411627 0.375145,-0.904909 0.591897,-1.412188 0.603403,-1.412188 0.0098,0 0.02087,0.01168 0.02441,0.02585 0.156861,0.627933 0.763598,2.982003 0.770465,2.989326 0.0051,0.0056 0.632733,-0.588948 1.394191,-1.321451 0.761453,-0.732505 1.393135,-1.333632 1.403743,-1.335837 0.01185,-0.0026 0.01928,0.0055 0.01928,0.0208 0,0.01364 -0.23789,0.977687 -0.528646,2.142298 -0.290756,1.164615 -0.526629,2.119066 -0.524163,2.121004 0.0026,0.0019 0.869852,0.08833 1.927532,0.19196 1.057679,0.103641 1.942577,0.191559 1.966455,0.195376 0.02884,0.0046 0.04339,0.01395 0.04339,0.02788 0,0.01424 -0.648361,0.406685 -2.029889,1.228661 -1.11644,0.664254 -2.029858,1.211179 -2.029825,1.21539 4.4e-5,0.0042 0.771945,0.465512 1.715363,1.025113 0.943411,0.559601 1.715605,1.024436 1.715989,1.032967 4.44e-4,0.0095 -0.01625,0.0153 -0.0427,0.01497 -0.02385,-2.04e-4 -0.884735,-0.08031 -1.913035,-0.177814 -1.028299,-0.0975 -1.871718,-0.17583 -1.874261,-0.174053 -0.0026,0.0019 0.363241,0.951441 0.812845,2.110362 0.449609,1.158923 0.840629,2.167155 0.868932,2.240518 0.05074,0.131414 0.05104,0.133375 0.02181,0.132421 -0.02125,-5.87e-4 -0.519114,-0.47162 -1.758607,-1.663484 z"
       id="path5094" />
    <path
       style="fill:#3c3c3c;fill-opacity:1;stroke:#000000;stroke-width:0.0094901;stroke-miterlimit:4;stroke-dasharray:none;stroke-opacity:1"
       d="m 66.110191,79.944427 c -1.050452,-0.962494 -1.314598,-1.199971 -1.322992,-1.189407 -0.0058,0.0072 -0.190687,0.322494 -0.410929,0.70052 -0.220245,0.378028 -0.405686,0.687394 -0.412091,0.687479 -0.0064,8.9e-5 -0.19054,-0.395783 -0.409192,-0.879704 -0.351294,-0.777501 -0.399397,-0.878525 -0.413447,-0.868383 -0.0088,0.0063 -0.702468,0.51938 -1.541609,1.140149 -0.839141,0.62077 -1.529459,1.128671 -1.534043,1.128671 -0.0046,0 -0.0083,-0.0081 -0.0083,-0.01779 0,-0.0098 0.230504,-0.739498 0.512235,-1.621596 0.281728,-0.882099 0.510969,-1.606523 0.509427,-1.609829 -0.0015,-0.0033 -0.322153,0.04579 -0.712458,0.109098 -0.390306,0.06331 -0.715352,0.115167 -0.722321,0.115236 -0.0071,7.1e-5 -0.01267,-0.0051 -0.01267,-0.01152 0,-0.0064 0.198448,-0.192669 0.440994,-0.413925 0.242547,-0.221257 0.440945,-0.404841 0.44088,-0.407964 -6.4e-5,-0.0031 -0.703121,-0.36919 -1.56235,-0.813478 -0.859227,-0.444288 -1.564571,-0.813018 -1.567431,-0.819402 -0.0029,-0.0064 -0.0034,-0.01323 -0.0012,-0.0152 0.0023,-0.002 0.781591,0.04446 1.731909,0.103194 0.950317,0.05874 1.730013,0.104872 1.732658,0.102529 0.0062,-0.0056 -0.3721,-0.672731 -0.729649,-1.286365 -0.158229,-0.271554 -0.280567,-0.491552 -0.275728,-0.495834 0.0049,-0.0043 0.484782,0.08599 1.081706,0.203444 0.590152,0.11613 1.075541,0.208902 1.078637,0.20616 0.0029,-0.0027 -0.166627,-0.784805 -0.377171,-1.737916 -0.210546,-0.953113 -0.380405,-1.735058 -0.377469,-1.737655 0.0029,-0.0025 0.01123,-0.0026 0.01845,-1.5e-4 0.0072,0.0025 0.55599,0.624745 1.219515,1.382748 0.663519,0.758002 1.20868,1.37837 1.21147,1.378592 0.0029,1.49e-4 0.205059,-0.459281 0.449495,-1.021121 0.284785,-0.654579 0.449328,-1.021527 0.458062,-1.021527 0.0074,0 0.01584,0.0084 0.01853,0.0187 0.119078,0.454225 0.57967,2.157076 0.584883,2.162373 0.0039,0.0041 0.480328,-0.426024 1.058374,-0.955891 0.578042,-0.529868 1.057571,-0.964702 1.065624,-0.966297 0.009,-0.0019 0.01464,0.004 0.01464,0.01505 0,0.0099 -0.180589,0.707224 -0.401311,1.549662 -0.220722,0.842442 -0.39978,1.532858 -0.397908,1.53426 0.002,0.0014 0.660331,0.06389 1.463249,0.138857 0.802916,0.07497 1.47467,0.138567 1.492796,0.141328 0.02189,0.0033 0.03294,0.01009 0.03294,0.02017 0,0.0103 -0.492191,0.294182 -1.540951,0.88877 -0.847524,0.480498 -1.540928,0.876124 -1.540903,0.87917 3.3e-5,0.003 0.586007,0.336735 1.302185,0.74153 0.716172,0.404796 1.302368,0.741041 1.30266,0.747212 3.37e-4,0.0069 -0.01234,0.01107 -0.03242,0.01083 -0.01811,-1.48e-4 -0.67163,-0.05809 -1.452244,-0.128624 -0.780613,-0.07053 -1.420879,-0.12719 -1.422809,-0.125904 -0.002,0.0014 0.275747,0.688239 0.617056,1.526561 0.341312,0.838324 0.638147,1.567643 0.659633,1.620711 0.03852,0.09506 0.03875,0.09648 0.01656,0.09579 -0.01613,-4.25e-4 -0.394075,-0.341153 -1.335012,-1.203305 z"
       id="path5094-5" />
  </g>
</svg>
