<?xml version="1.0" encoding="UTF-8" standalone="no"?>
<!-- Created with Inkscape (http://www.inkscape.org/) -->

<svg
   width="47.813618mm"
   height="50.728687mm"
   viewBox="0 0 47.813618 50.728687"
   version="1.1"
   id="svg1"
   inkscape:version="1.1.2 (0a00cf5339, 2022-02-04)"
   sodipodi:docname="map05c.svg"
   xmlns:inkscape="http://www.inkscape.org/namespaces/inkscape"
   xmlns:sodipodi="http://sodipodi.sourceforge.net/DTD/sodipodi-0.dtd"
   xmlns="http://www.w3.org/2000/svg"
   xmlns:svg="http://www.w3.org/2000/svg">
  <sodipodi:namedview
     id="namedview1"
     pagecolor="#ffffff"
     bordercolor="#666666"
     borderopacity="1.0"
     inkscape:showpageshadow="2"
     inkscape:pageopacity="0.0"
     inkscape:pagecheckerboard="0"
     inkscape:deskcolor="#d1d1d1"
     inkscape:document-units="mm"
     inkscape:zoom="2.0535658"
     inkscape:cx="76.452384"
     inkscape:cy="86.921978"
     inkscape:window-width="1920"
     inkscape:window-height="1009"
     inkscape:window-x="0"
     inkscape:window-y="34"
     inkscape:window-maximized="1"
     inkscape:current-layer="layer1"
     inkscape:pageshadow="2"
     showgrid="false" />
  <defs
     id="defs1" />
  <g
     inkscape:label="Livello 1"
     inkscape:groupmode="layer"
     id="layer1"
     transform="translate(-36.441703,-46.280896)">
    <path
       d="M 60.629374,46.280896 H 43.547729 c -3.936798,0 -7.106026,3.169227 -7.106026,7.106026 v 20.769792 z"
       style="fill:#677821;stroke-width:0.0370417;stroke-miterlimit:10"
       id="path7" />
    <path
       d="m 56.937093,78.982776 -20.49539,7.508069 v 3.412711 c 0,3.936799 3.169228,7.106027 7.106026,7.106027 h 27.016956 z"
       style="fill:#aa0000;stroke-width:0.0370417;stroke-miterlimit:10"
       id="path16" />
    <path
       d="m 45.444771,63.78112 -9.003068,10.375594 v 12.334131 l 20.49539,-7.508069 z"
       style="fill:#ff8080;stroke-width:0.0370417;stroke-miterlimit:10"
       id="path15" />
    <path
       d="m 84.255322,74.680713 -22.603788,10.538891 8.913151,11.789979 h 6.584611 c 3.936799,0 7.106026,-3.169228 7.106026,-7.106027 z"
       style="fill:#e9ddaf;stroke-width:0.0370417;stroke-miterlimit:10"
       id="path13" />
    <path
       d="M 84.255322,59.504378 51.854199,72.259155 61.651534,85.219604 84.255322,74.680713 Z"
       style="fill:#cdde87;stroke-width:0.0370417;stroke-miterlimit:10"
       id="path19" />
    <path
       d="M 60.629374,46.280896 45.444771,63.78112 51.854199,72.259155 84.255322,59.504378 v -6.117456 c 0,-3.936799 -3.169227,-7.106026 -7.106026,-7.106026 z"
       style="fill:#e9afaf;stroke-width:0.0370417;stroke-miterlimit:10"
       id="path18" />
    <path
       style="fill:#3c3c3c;fill-opacity:1;stroke:#000000;stroke-width:0.0127759;stroke-miterlimit:4;stroke-dasharray:none;stroke-opacity:1"
       d="m 67.78919,62.23143 c -1.330604,-1.377074 -1.665197,-1.716841 -1.675832,-1.701726 -0.0073,0.01033 -0.241541,0.461404 -0.520521,1.00226 -0.278985,0.540857 -0.513882,0.983479 -0.521998,0.983599 -0.008,1.27e-4 -0.241355,-0.566262 -0.51832,-1.258625 -0.444986,-1.112396 -0.505917,-1.256935 -0.523714,-1.242424 -0.01112,0.0091 -0.889816,0.743095 -1.952754,1.63125 -1.062939,0.888158 -1.937365,1.61483 -1.943172,1.61483 -0.0058,0 -0.01055,-0.01153 -0.01055,-0.02544 0,-0.014 0.291979,-1.058025 0.648847,-2.320075 0.356865,-1.26205 0.647244,-2.298509 0.64529,-2.303239 -0.0019,-0.0047 -0.408069,0.06551 -0.90247,0.15609 -0.494399,0.09058 -0.906134,0.164775 -0.914962,0.164874 -0.009,1e-4 -0.01605,-0.0073 -0.01605,-0.01649 0,-0.0092 0.251373,-0.275657 0.558607,-0.592218 0.307234,-0.316558 0.558543,-0.579221 0.558462,-0.583689 -8.3e-5,-0.0045 -0.890644,-0.528212 -1.979029,-1.163869 -1.088381,-0.63566 -1.981839,-1.163216 -1.985461,-1.17235 -0.0037,-0.0092 -0.0044,-0.01893 -0.0015,-0.02174 0.0029,-0.0029 0.990039,0.0636 2.193804,0.147643 1.203768,0.08404 2.191407,0.150043 2.194757,0.146693 0.0079,-0.0079 -0.471338,-0.962501 -0.924244,-1.840448 -0.200431,-0.388522 -0.355395,-0.703281 -0.349265,-0.709408 0.0061,-0.0061 0.614073,0.123025 1.370195,0.291075 0.747546,0.166151 1.362386,0.298884 1.366308,0.294961 0.0037,-0.0039 -0.211067,-1.122849 -0.477761,-2.486499 -0.2667,-1.363651 -0.481859,-2.482408 -0.478141,-2.486125 0.0037,-0.0037 0.01423,-0.0038 0.02336,-2.14e-4 0.0092,0.0035 0.704272,0.893845 1.544758,1.978345 0.84048,1.084502 1.531033,1.972084 1.534569,1.972403 0.0037,2.12e-4 0.259748,-0.65711 0.569374,-1.460955 0.360736,-0.93653 0.569164,-1.461535 0.580228,-1.461535 0.0094,0 0.02006,0.01209 0.02348,0.02676 0.150836,0.649876 0.734267,3.086205 0.740871,3.093784 0.0048,0.0058 0.60843,-0.609528 1.340639,-1.367627 0.732206,-0.758102 1.339626,-1.380233 1.349826,-1.382517 0.01135,-0.0026 0.01854,0.0057 0.01854,0.02153 0,0.01412 -0.228751,1.011851 -0.508339,2.217158 -0.279589,1.20531 -0.506401,2.193112 -0.50403,2.195119 0.0025,0.0019 0.836441,0.09142 1.853495,0.198667 1.017054,0.107266 1.867963,0.198254 1.890923,0.202204 0.02772,0.0047 0.04172,0.01445 0.04172,0.02886 0,0.01473 -0.623458,0.420897 -1.951922,1.271594 -1.073557,0.687465 -1.95189,1.253502 -1.951859,1.257861 4.2e-5,0.0044 0.742295,0.481777 1.649475,1.060933 0.907176,0.579155 1.649709,1.060232 1.650079,1.069061 4.26e-4,0.0099 -0.01563,0.01583 -0.04106,0.01551 -0.02294,-2.11e-4 -0.850752,-0.08312 -1.839556,-0.184028 -0.988802,-0.100911 -1.799826,-0.181974 -1.802271,-0.180135 -0.0025,0.0019 0.34929,0.984689 0.781625,2.184105 0.432338,1.19942 0.80834,2.242883 0.835556,2.31881 0.04878,0.136006 0.04908,0.138035 0.02097,0.137048 -0.02043,-6.07e-4 -0.499175,-0.488099 -1.69106,-1.721612 z"
       id="path5094" />
    <path
       style="fill:#3c3c3c;fill-opacity:1;stroke:#000000;stroke-width:0.00890676;stroke-miterlimit:4;stroke-dasharray:none;stroke-opacity:1"
       d="m 74.344863,76.428043 c -0.927642,-0.960038 -1.160906,-1.196909 -1.168318,-1.186371 -0.0051,0.0072 -0.168394,0.32167 -0.362887,0.698733 -0.194497,0.377062 -0.358257,0.685638 -0.363914,0.685723 -0.0057,8.9e-5 -0.168263,-0.394774 -0.361352,-0.87746 -0.310224,-0.775515 -0.352702,-0.876282 -0.36511,-0.866165 -0.0078,0.0063 -0.620342,0.518054 -1.361378,1.137239 -0.741036,0.619185 -1.350648,1.125791 -1.354696,1.125791 -0.0041,0 -0.0074,-0.008 -0.0074,-0.01774 0,-0.0098 0.203556,-0.73761 0.452349,-1.617458 0.248791,-0.879847 0.451231,-1.602422 0.449868,-1.605721 -0.0014,-0.0033 -0.284488,0.04567 -0.629162,0.10882 -0.344676,0.06315 -0.631719,0.114874 -0.637874,0.114942 -0.0062,7.2e-5 -0.0112,-0.0051 -0.0112,-0.01149 0,-0.0064 0.175247,-0.192176 0.389437,-0.412869 0.214191,-0.220691 0.389393,-0.403807 0.389336,-0.406922 -5.7e-5,-0.0031 -0.620919,-0.368248 -1.379694,-0.811402 -0.758774,-0.443154 -1.381655,-0.810944 -1.38418,-0.817312 -0.0026,-0.0064 -0.003,-0.01319 -0.0011,-0.01516 0.002,-0.002 0.690213,0.04435 1.529428,0.102931 0.839215,0.05858 1.527756,0.104604 1.530091,0.102267 0.0056,-0.0056 -0.328597,-0.671014 -0.644345,-1.283081 -0.13973,-0.270861 -0.247765,-0.490298 -0.243492,-0.49457 0.0043,-0.0043 0.428106,0.08576 0.955242,0.202926 0.521158,0.115833 0.949798,0.208369 0.952533,0.205633 0.0026,-0.0027 -0.147147,-0.782802 -0.333075,-1.733482 -0.185931,-0.950679 -0.335932,-1.730628 -0.33334,-1.73322 0.0026,-0.0026 0.0099,-0.0026 0.01629,-1.48e-4 0.0064,0.0025 0.49099,0.62315 1.076941,1.379218 0.585946,0.756068 1.067371,1.374852 1.069835,1.375075 0.0026,1.48e-4 0.181086,-0.458109 0.396945,-1.018516 0.251489,-0.652908 0.396796,-1.01892 0.404509,-1.01892 0.0066,0 0.01399,0.0084 0.01637,0.01865 0.105156,0.453065 0.5119,2.151571 0.516505,2.156855 0.0034,0.0041 0.42417,-0.424937 0.934637,-0.953452 0.510463,-0.528516 0.93393,-0.96224 0.941041,-0.963831 0.0079,-0.0018 0.01293,0.004 0.01293,0.01501 0,0.0098 -0.159477,0.705419 -0.354394,1.545708 -0.194917,0.840291 -0.353042,1.528946 -0.351388,1.530344 0.0017,0.0014 0.583131,0.06373 1.292178,0.138503 0.709047,0.07478 1.302265,0.138213 1.318272,0.140967 0.01934,0.0033 0.02909,0.01006 0.02909,0.02011 0,0.01027 -0.434648,0.293431 -1.360797,0.886501 -0.748438,0.479272 -1.360775,0.873889 -1.360753,0.876927 2.9e-5,0.003 0.517496,0.335875 1.149944,0.739638 0.632444,0.403763 1.150107,0.73915 1.150365,0.745304 2.98e-4,0.0068 -0.0109,0.01104 -0.02862,0.0108 -0.01599,-1.48e-4 -0.593108,-0.05794 -1.28246,-0.128297 -0.689351,-0.07035 -1.254762,-0.126864 -1.256467,-0.125582 -0.0017,0.0014 0.24351,0.686482 0.544915,1.522666 0.301408,0.836184 0.563541,1.563642 0.582515,1.616575 0.03401,0.09482 0.03422,0.09623 0.01463,0.09554 -0.01424,-4.23e-4 -0.348004,-0.340282 -1.178935,-1.200234 z"
       id="path5094-8" />
  </g>
</svg>
